<svg width="32" height="32" viewBox="0 0 32 32" fill="none" xmlns="http://www.w3.org/2000/svg">
<path fill-rule="evenodd" clip-rule="evenodd" d="M26.6467 0C26.9077 0 27.1315 0.111888 27.2993 0.27972L31.7183 4.68065C31.9048 4.84849 32.0166 5.09091 31.998 5.33333V20.2704C31.998 26.7599 26.7213 32 20.2699 32H5.33468C5.09229 32 4.84989 31.8881 4.68208 31.7203L0.281704 27.3194C0.095247 27.1515 -0.016627 26.9091 0.00201862 26.6667V11.7296C0.00201862 5.24009 5.24145 0 11.6929 0H26.6467ZM4.29052 27.3753V11.7296C4.29052 7.60839 7.60945 4.28905 11.7301 4.25175H23.1226C23.2905 4.25175 23.4396 4.40093 23.4396 4.56876V19.7855C23.4396 21.7809 21.8174 23.3846 19.8224 23.4033H11.7861C11.6742 23.4033 11.5623 23.4965 11.5064 23.6084L10.9657 25.0256C10.8911 25.1748 10.9657 25.3613 11.1148 25.4173C11.1521 25.4359 11.1894 25.4359 11.2454 25.4359H20.2699C23.1226 25.4359 25.4534 23.1422 25.4534 20.2704C25.4534 20.2517 25.4534 20.2518 25.4534 20.2331V2.55478C25.4534 2.38695 25.3228 2.23776 25.1364 2.23776H11.7115C6.49071 2.23776 2.2395 6.45221 2.2395 11.6737C2.2395 11.6923 2.2395 11.6923 2.2395 11.711V25.958C2.2395 26.0326 2.27679 26.1259 2.33273 26.1818L3.7498 27.5991C3.88032 27.7296 4.06677 27.7296 4.19729 27.5991C4.25323 27.5431 4.29052 27.4685 4.29052 27.3753ZM10.7979 20.8485V12.1585C10.7979 11.4312 11.3945 10.8345 12.159 10.8345H20.8479C21.0157 10.8345 21.1649 10.9837 21.1649 11.1515V19.8415C21.1649 20.5688 20.5682 21.2028 19.841 21.2028H11.1335C10.947 21.1468 10.7979 21.0163 10.7979 20.8485ZM20.2699 29.7249C25.4906 29.7249 29.7232 25.4732 29.7232 20.2517V6.00466C29.7232 5.93007 29.6859 5.83683 29.63 5.78089L28.2129 4.36363C28.0824 4.2331 27.8959 4.2331 27.7654 4.36363C27.7095 4.41958 27.6722 4.51282 27.6722 4.58741V20.2704C27.6722 24.373 24.3533 27.711 20.2512 27.711H20.2326H8.84007C8.67226 27.711 8.52309 27.5618 8.52309 27.3939V12.1772C8.52309 10.1818 10.1453 8.57809 12.1403 8.55944H20.1766C20.2885 8.55944 20.4004 8.4662 20.4563 8.35432L20.997 6.93706C21.0716 6.78788 20.997 6.6014 20.8479 6.54546C20.8106 6.52681 20.7733 6.52681 20.7174 6.52681H11.7301C8.85871 6.52681 6.54665 8.85781 6.54665 11.711V29.3893C6.54665 29.5571 6.69581 29.7063 6.86362 29.7063L20.2699 29.7249Z" fill="black"/>
</svg>
